<?xml version="1.0" encoding="utf-8"?>
<!-- Generator: Adobe Illustrator 27.8.1, SVG Export Plug-In . SVG Version: 6.00 Build 0)  -->
<svg version="1.1" id="Layer_1" xmlns="http://www.w3.org/2000/svg" xmlns:xlink="http://www.w3.org/1999/xlink" x="0px" y="0px"
	 viewBox="0 0 610.78 411.63" style="enable-background:new 0 0 610.78 411.63;" xml:space="preserve">
<g id="Layer_1_00000111901867489750273560000009571788824743066791_">
</g>
<g id="Layer_2_00000029026649903556199870000001574047541121729423_">
</g>
<g id="Layer_5">
</g>
<g id="Layer_3">
	<g>
		<g>
			<g>
				<path d="M206.61,0.57c-23.12-0.81-46.32-0.93-69.4,0.8C110.03,3.4,80.65,6.61,56.44,20.28C28.7,35.94,7.25,66.15,2.18,97.63
					c-2.73,16.92-3.4,32.5,0.94,49.28c4.27,16.47,13.46,33.73,26.87,44.52c9.23,7.43,18.77,15.28,29.48,20.56
					c10.62,5.24,21.61,9.15,33.17,11.6c29.31,6.22,59.4,9.41,89.25,11.63c60.01,4.46,120.35,4.97,180.49,3.57
					c63.31-1.47,126.63-5.26,189.6-12.01c7.23-0.77,14.45-1.59,21.66-2.45c-12.06-15.84-24.13-31.67-36.19-47.51
					c-6.06,39.37-13.9,78.54-29.35,115.42c1.26-2.99,2.52-5.98,3.78-8.97c-6.65,15.67-14.13,31.28-24.54,44.84
					c1.96-2.53,3.91-5.06,5.87-7.6c-4.22,5.36-8.87,10.28-14.21,14.53c2.53-1.96,5.06-3.91,7.6-5.87
					c-4.21,3.24-8.68,5.94-13.55,8.07c2.99-1.26,5.98-2.52,8.97-3.78c-4.64,1.92-9.4,3.22-14.36,3.98c3.33-0.45,6.65-0.89,9.98-1.34
					c-6.35,0.84-12.67,0.73-19.02-0.04c3.33,0.45,6.65,0.89,9.98,1.34c-6.99-0.97-13.95-2.52-20.47-5.25
					c2.99,1.26,5.98,2.52,8.97,3.78c-7.03-3.13-13.51-7.21-19.61-11.88c2.53,1.96,5.06,3.91,7.6,5.87
					c-5.03-3.98-9.62-8.31-13.56-13.38c1.96,2.53,3.91,5.06,5.87,7.6c-7.29-9.58-13.19-19.95-17.91-31.01
					c1.26,2.99,2.52,5.98,3.78,8.97c-10.98-26.36-17.26-54.85-25.01-82.28c-4.07-14.42-16.51-24.91-31.2-26.89
					c-15.11-2.03-29.25,5.02-37.4,17.92c-21.76,34.45-34.45,74.37-59.32,106.91c1.96-2.53,3.91-5.06,5.87-7.6
					c-4.76,6.02-10.12,11.38-16.18,16.09c2.53-1.96,5.06-3.91,7.6-5.87c-5.49,4.11-11.32,7.53-17.6,10.27
					c2.99-1.26,5.98-2.52,8.97-3.78c-6.64,2.75-13.48,4.62-20.6,5.58c3.33-0.45,6.65-0.89,9.98-1.34c-6.69,0.78-13.32,0.72-20-0.16
					c3.33,0.45,6.65,0.89,9.98,1.34c-7.93-1.2-15.61-3.58-23-6.66c2.99,1.26,5.98,2.52,8.97,3.78c-6.08-2.61-11.79-5.83-17.08-9.82
					c2.53,1.96,5.06,3.91,7.6,5.87c-6.7-5.18-12.44-11.35-17.62-18.03c1.96,2.53,3.91,5.06,5.87,7.6
					c-9.25-12.12-16.79-25.47-23.87-38.94c-6.78-12.89-13.63-25.94-19.32-39.36c1.26,2.99,2.52,5.98,3.78,8.97
					c-6.57-15.78-8.52-33.07-11.42-49.79c-1.52-8.75-9.87-18.11-17.25-22.43c-8.05-4.71-19.9-6.7-28.92-3.78
					c-9.08,2.94-17.84,8.57-22.43,17.25c-4.97,9.41-5.6,18.46-3.78,28.92c2.16,12.46,3.84,25.16,7.14,37.39
					c3.23,11.99,8.71,23.37,14.16,34.48c14.03,28.61,28.47,58.44,50.65,81.81c20.83,21.95,49.09,33.39,78.72,36.73
					c20.55,2.32,40.86-3.23,59.37-11.7c19.01-8.7,33.93-23.69,46.23-40.21c24.14-32.43,36.86-71.62,58.36-105.66
					c-22.87-2.99-45.73-5.98-68.6-8.97c9.74,34.47,17.43,70.74,34.17,102.68c16.58,31.65,45.93,58.62,81.63,66.14
					c17.64,3.72,35.83,4.57,53.37-0.3c15.85-4.41,29.97-13.13,41.91-24.32c23.51-22.04,37.19-54.09,48.3-83.64
					c12.54-33.35,19.21-68.45,24.61-103.55c1.9-12.34,1.13-22.56-6.72-32.72c-6.53-8.45-18.12-16.14-29.47-14.79
					c-114.75,13.65-231.3,18.3-346.76,13.48c-29.31-1.23-58.72-2.99-87.82-6.82c3.33,0.45,6.65,0.89,9.98,1.34
					c-18.92-2.56-39.2-4.71-56.96-12.18c2.99,1.26,5.98,2.52,8.97,3.78c-8.1-3.52-15.32-8.45-22.3-13.81
					c2.53,1.96,5.06,3.91,7.6,5.87c-3.97-3.08-7.66-6.2-10.82-10.14c1.96,2.53,3.91,5.06,5.87,7.6c-2.78-3.69-5-7.62-6.82-11.86
					c1.26,2.99,2.52,5.98,3.78,8.97c-2.16-5.34-3.61-10.84-4.42-16.54c0.45,3.33,0.89,6.65,1.34,9.98
					c-0.8-6.4-0.52-12.73,0.29-19.12c-0.45,3.33-0.89,6.65-1.34,9.98c1.03-7.17,2.85-14.09,5.58-20.8
					c-1.26,2.99-2.52,5.98-3.78,8.97c2.56-5.96,5.75-11.5,9.64-16.69c-1.96,2.53-3.91,5.06-5.87,7.6
					c4.29-5.52,9.19-10.36,14.71-14.65c-2.53,1.96-5.06,3.91-7.6,5.87c4.17-3.13,8.43-5.74,13.2-7.83
					c-2.99,1.26-5.98,2.52-8.97,3.78c11.62-4.88,24.16-7.24,36.59-8.95c-3.33,0.45-6.65,0.89-9.98,1.34
					c29.39-3.89,59.26-3.83,88.84-2.79c19.64,0.69,38.42-17.76,37.53-37.53C243.21,17.17,227.66,1.31,206.61,0.57L206.61,0.57z"/>
			</g>
		</g>
		<g>
			<g>
				<path d="M340.15,84.43c19.63,0,38.44-17.26,37.53-37.53c-0.91-20.34-16.49-37.53-37.53-37.53c-19.63,0-38.44,17.26-37.53,37.53
					C303.53,67.23,319.11,84.43,340.15,84.43L340.15,84.43z"/>
			</g>
		</g>
		<g>
			<g>
				<path d="M555.82,83.76c19.63,0,38.44-17.26,37.53-37.53C592.44,25.89,576.86,8.7,555.82,8.7c-19.63,0-38.44,17.26-37.53,37.53
					C519.2,66.56,534.78,83.76,555.82,83.76L555.82,83.76z"/>
			</g>
		</g>
	</g>
</g>
<g id="Layer_4">
</g>
</svg>
