<svg width="822" height="614" viewBox="0 0 822 614" fill="none" xmlns="http://www.w3.org/2000/svg">
<path d="M145.015 298.144C144.935 277.195 130.722 556.251 389.521 568.22C700.687 582.61 672.17 289.734 672.17 289.734" stroke="black" stroke-width="14" stroke-miterlimit="10" stroke-linecap="round"/>
<path d="M140.404 294.284C186.994 279.724 459.614 201.664 678.944 294.114C684.474 296.444 691.034 294.184 693.614 288.764C699.594 276.174 684.204 247.004 515.224 192.354C514.974 192.274 514.724 192.184 514.484 192.084C508.204 189.554 414.424 153.124 306.904 192.224C202.454 230.204 105.304 256.634 127.524 289.864C130.314 294.044 134.554 295.784 139.354 294.284H140.404Z" fill="black" stroke="black" stroke-width="14" stroke-miterlimit="10"/>
<path d="M149.974 252.394C149.974 252.394 148.344 122.574 287.794 59.4137C362.254 25.6837 446.014 25.7037 521.424 56.9137C590.744 85.6037 666.824 142.814 669.344 255.894" stroke="black" stroke-width="14.52" stroke-miterlimit="10"/>
<path d="M388.984 33.8037C388.984 33.8037 327.904 75.2337 306.894 187.424" stroke="black" stroke-width="14.52" stroke-miterlimit="10"/>
<path d="M421.585 33.8037C421.585 33.8037 490.695 75.1937 514.465 187.284" stroke="black" stroke-width="15.44" stroke-miterlimit="10"/>
<path d="M374.965 33.8037C374.965 33.8037 374.965 7.56366 409.425 7.75366C409.425 7.75366 441.315 5.69367 442.685 33.8037" stroke="black" stroke-width="15.44" stroke-miterlimit="10"/>
<path d="M178.115 311.584C178.115 311.584 180.175 329.314 197.615 330.634C215.055 331.954 216.265 333.004 224.335 334.074C232.405 335.144 281.004 348.134 300.564 357.864C326.064 370.544 314.704 365.294 330.814 374.564C335.124 377.044 339.024 378.314 343.124 379.044C345.174 379.404 347.344 378.774 348.664 377.164C351.754 373.424 351.874 363.544 323.344 338.094C323.344 338.094 301.824 313.904 257.844 309.404C250.294 308.634 242.674 308.814 235.154 309.814C225.674 311.074 215.065 315.364 204.585 316.434C192.545 317.664 178.115 311.574 178.115 311.574V311.584Z" fill="black" stroke="black" stroke-width="0.75" stroke-miterlimit="10"/>
<path d="M638.795 312.304C638.795 312.304 636.585 330.014 619.135 331.184C602.235 332.324 600.465 333.394 592.385 334.404C584.415 335.394 535.595 347.994 515.955 357.564C490.345 370.034 501.754 364.884 485.574 374.014C481.244 376.454 477.335 377.704 473.225 378.394C471.175 378.744 469.015 378.084 467.695 376.474C464.635 372.714 464.605 362.834 493.335 337.614C493.335 337.614 515.045 313.604 559.065 309.464C566.625 308.754 574.235 309.004 581.745 310.064C591.215 311.404 601.784 315.784 612.264 316.944C624.294 318.274 638.775 312.304 638.775 312.304H638.795Z" fill="black" stroke="black" stroke-width="0.75" stroke-miterlimit="10"/>
<path d="M323.095 454.074C323.095 454.074 317.575 530.624 404.645 462.224C406.195 461.004 408.395 461.064 409.885 462.364C422.815 473.684 481.205 520.554 491.615 453.184" stroke="black" stroke-width="14" stroke-miterlimit="10"/>
<path d="M325.904 453.454C325.904 451.863 324.615 450.574 323.024 450.574C321.434 450.574 320.144 451.863 320.144 453.454V455.984C320.144 457.574 321.434 458.864 323.024 458.864C324.615 458.864 325.904 457.574 325.904 455.984V453.454Z" stroke="black" stroke-width="8" stroke-miterlimit="10"/>
<path d="M494.484 451.914C494.484 450.323 493.195 449.034 491.604 449.034C490.014 449.034 488.724 450.323 488.724 451.914V454.444C488.724 456.034 490.014 457.324 491.604 457.324C493.195 457.324 494.484 456.034 494.484 454.444V451.914Z" stroke="black" stroke-width="8" stroke-miterlimit="10"/>
<path d="M95.6945 443.454C82.6545 439.734 73.6545 429.734 67.6545 417.734C58.6545 396.734 61.6545 374.734 64.6545 352.734C67.6545 336.734 71.6545 320.734 77.6545 305.734C89.6545 278.734 113.655 255.734 144.695 253.654" stroke="black" stroke-width="14" stroke-miterlimit="10"/>
<path d="M169.025 421.014C158.975 428.374 148.055 434.654 136.375 439.034" stroke="black" stroke-width="14" stroke-miterlimit="10"/>
<path d="M681.075 438.904C669.805 434.264 659.255 427.954 649.255 421.014" stroke="black" stroke-width="14" stroke-miterlimit="10"/>
<path d="M673.585 253.654C704.125 255.084 728.055 278.414 740.675 304.734C748.695 321.454 752.115 339.864 754.175 358.154C756.235 376.444 757.405 396.614 750.925 414.724C745.585 429.624 733.875 441.354 718.015 444.284" stroke="black" stroke-width="14" stroke-miterlimit="10"/>
<path d="M810.654 424.714C783.524 422.394 768.034 392.734 768.034 392.734C766.254 433.134 748.674 447.054 728.104 449.164C729.044 453.044 729.174 456.944 727.744 460.584C724.914 467.804 716.664 469.624 709.684 469.314C707.784 469.234 705.764 469.054 703.714 468.774C702.674 469.354 701.454 469.554 700.254 469.284C696.624 470.124 692.684 469.774 688.494 467.694C683.214 465.074 680.714 460.344 679.584 454.924C678.614 451.794 678.564 448.324 678.714 444.824C678.714 442.744 678.784 440.674 678.854 438.694C666.884 433.424 658.624 428.204 658.624 428.204C641.954 511.564 514.474 558.894 514.474 558.894C634.834 637.464 697.964 599.244 716.844 582.884C720.214 579.964 720.994 575.094 718.824 571.204C709.044 553.634 699.824 507.174 699.824 507.174C757.424 502.774 800.234 449.774 813.604 431.124C815.434 428.564 813.784 425.004 810.654 424.734V424.714Z" fill="black" stroke="black" stroke-width="14" stroke-miterlimit="10"/>
<path d="M162.744 428.204C162.744 428.204 155.204 432.974 144.084 437.994C144.564 442.824 144.124 447.804 143.074 452.384C141.904 457.514 138.974 461.834 135.134 465.214C134.844 465.724 134.544 466.234 134.224 466.744C133.084 468.564 131.354 469.214 129.684 469.064C127.254 470.444 124.664 471.544 122.044 472.324C112.844 475.054 101.134 474.394 94.9145 466.174C91.1545 461.194 90.2544 454.974 90.3644 448.774C71.0744 445.674 55.0345 431.224 53.3445 392.744C53.3445 392.744 37.8545 422.404 10.7245 424.724C7.59446 424.994 5.94445 428.564 7.77445 431.114C21.1445 449.764 63.9545 502.764 121.554 507.164C121.554 507.164 112.334 553.624 102.554 571.194C100.384 575.094 101.164 579.954 104.534 582.874C123.404 599.234 186.544 637.454 306.904 558.884C306.904 558.884 179.414 511.554 162.754 428.194L162.744 428.204Z" fill="black" stroke="black" stroke-width="14" stroke-miterlimit="10"/>
<path d="M109.584 383.634C109.584 383.634 132.494 381.084 133.004 383.634C133.514 386.184 144.704 462.664 129.444 462.534C115.474 462.414 103.864 461.054 96.9944 460.024C93.1844 459.454 90.5044 455.974 90.9244 452.144C92.8944 433.844 99.1744 384.454 109.594 383.634H109.584Z" stroke="black" stroke-width="14" stroke-miterlimit="10"/>
<path d="M706.974 385.774C706.974 385.774 684.064 383.224 683.554 385.774C683.044 388.324 671.854 464.804 687.114 464.674C701.084 464.554 712.694 463.194 719.564 462.164C723.374 461.594 726.054 458.114 725.634 454.284C723.664 435.984 717.384 386.594 706.964 385.774H706.974Z" stroke="black" stroke-width="14" stroke-miterlimit="10"/>
</svg>
